<?xml version="1.0" encoding="utf-8"?>
<!-- Generator: Adobe Illustrator 26.0.3, SVG Export Plug-In . SVG Version: 6.00 Build 0)  -->
<svg version="1.1" id="圖層_1" xmlns="http://www.w3.org/2000/svg" xmlns:xlink="http://www.w3.org/1999/xlink" x="0px" y="0px"
	 viewBox="0 0 34 34" style="enable-background:new 0 0 34 34;" xml:space="preserve">
<style type="text/css">
	.st0{fill:none;stroke:#FFFFFF;stroke-miterlimit:10;}
</style>
<g>
	<g>
		<g>
			<path class="st0" d="M27.01,23.47H13.87c-1.09,0-2.05-0.75-2.31-1.81L8.44,8.81h20.98c1.54,0,2.67,1.44,2.31,2.93l-2.41,9.91
				C29.05,22.73,28.1,23.47,27.01,23.47z"/>
			<path class="st0" d="M10.73,18.21L7.56,5.07C7.31,4.01,6.35,3.26,5.25,3.26H1.79"/>
			
				<ellipse transform="matrix(0.2818 -0.9595 0.9595 0.2818 -18.1543 32.9542)" class="st0" cx="12.93" cy="28.6" rx="2.53" ry="2.53"/>
			<ellipse transform="matrix(0.925 -0.38 0.38 0.925 -8.7725 12.7632)" class="st0" cx="27.94" cy="28.6" rx="2.53" ry="2.53"/>
			<line class="st0" x1="10.22" y1="16.14" x2="25.39" y2="16.14"/>
		</g>
	</g>
</g>
</svg>
