<?xml version="1.0" encoding="utf-8"?>
<!-- Generator: Adobe Illustrator 26.0.3, SVG Export Plug-In . SVG Version: 6.00 Build 0)  -->
<svg version="1.1" id="圖層_1" xmlns="http://www.w3.org/2000/svg" xmlns:xlink="http://www.w3.org/1999/xlink" x="0px" y="0px"
	 viewBox="0 0 34 34" style="enable-background:new 0 0 34 34;" xml:space="preserve">
<style type="text/css">
	.st0{fill:#FFFFFF;}
</style>
<g>
	<path class="st0" d="M17.21,15.42c-0.31-0.09-0.62-0.19-0.91-0.31c-0.5-0.21-1.34-0.71-1.34-1.66c0-1.08,0.88-1.95,1.95-1.95
		c0.52,0,1.01,0.2,1.38,0.57c0.39,0.39,1.02,0.39,1.41,0s0.39-1.02,0-1.41c-0.5-0.5-1.12-0.84-1.79-1.01V8.5c0-0.55-0.45-1-1-1
		c-0.55,0-1,0.45-1,1v1.14c-1.69,0.45-2.95,1.98-2.95,3.81c0,1.52,0.96,2.83,2.57,3.51c0.35,0.15,0.73,0.27,1.1,0.38
		c0.66,0.2,1.24,0.38,1.62,0.74c0.45,0.42,0.7,1.01,0.7,1.6c0,1.26-1.02,2.28-2.28,2.28c-0.65,0-1.25-0.26-1.68-0.74
		c-0.37-0.41-1.01-0.44-1.41-0.06c-0.41,0.37-0.44,1.01-0.06,1.41c0.63,0.69,1.48,1.14,2.39,1.31v1.62c0,0.55,0.45,1,1,1
		c0.55,0,1-0.45,1-1v-1.74c1.76-0.53,3.05-2.15,3.05-4.08c0-1.14-0.48-2.25-1.33-3.05C18.9,15.94,18,15.66,17.21,15.42z"/>
	<path class="st0" d="M16.95,1c-8.82,0-16,7.18-16,16s7.18,16,16,16c8.82,0,16-7.18,16-16S25.77,1,16.95,1z M16.95,31
		c-7.72,0-14-6.28-14-14s6.28-14,14-14c7.72,0,14,6.28,14,14S24.67,31,16.95,31z"/>
</g>
</svg>
