<?xml version="1.0" encoding="utf-8"?>
<!-- Generator: Adobe Illustrator 26.0.3, SVG Export Plug-In . SVG Version: 6.00 Build 0)  -->
<svg version="1.1" id="圖層_1" xmlns="http://www.w3.org/2000/svg" xmlns:xlink="http://www.w3.org/1999/xlink" x="0px" y="0px"
	 viewBox="0 0 34 34" style="enable-background:new 0 0 34 34;" xml:space="preserve">
<style type="text/css">
	.st0{fill:#FFFFFF;}
</style>
<g>
	<g>
		<g>
			<path class="st0" d="M25.29,31.12c-0.31,0-0.63-0.11-0.87-0.33l-6.29-5.59h-5.97C6.01,25.2,1,20.19,1,14.04
				C1,7.88,6.01,2.88,12.16,2.88h9.68C27.99,2.88,33,7.88,33,14.04c0,4.34-2.47,8.23-6.35,10.07l-0.05,5.72
				c0,0.51-0.31,0.98-0.78,1.18C25.65,31.09,25.47,31.12,25.29,31.12z M12.16,4.88C7.11,4.88,3,8.99,3,14.04
				c0,5.05,4.11,9.16,9.16,9.16h6.35c0.24,0,0.48,0.09,0.66,0.25l5.44,4.83l0.04-4.84c0-0.4,0.25-0.77,0.62-0.92
				c3.48-1.41,5.72-4.74,5.72-8.49c0-5.05-4.11-9.16-9.16-9.16H12.16z"/>
			<g>
				<path class="st0" d="M25.55,12.19H8.45c-0.55,0-1-0.45-1-1s0.45-1,1-1h17.1c0.55,0,1,0.45,1,1S26.1,12.19,25.55,12.19z"/>
				<path class="st0" d="M18.51,17.89H8.45c-0.55,0-1-0.45-1-1s0.45-1,1-1h10.06c0.55,0,1,0.45,1,1S19.06,17.89,18.51,17.89z"/>
			</g>
		</g>
	</g>
</g>
</svg>
